<svg
  width="556"
  height="741"
  viewBox="0 0 556 741"
  fill="none"
  xmlns="http://www.w3.org/2000/svg"
>
<line
    x1="516.111"
    y1="-11"
    x2="516.111"
    y2="1156.41"
    stroke="white"
    stroke-opacity="0.02"
    stroke-width="1.5"
  />
<line
    x1="193.371"
    y1="-11.0001"
    x2="193.371"
    y2="1156.41"
    stroke="white"
    stroke-opacity="0.02"
    stroke-width="1.5"
  />
<line
    x1="32.0005"
    y1="-11"
    x2="32.0004"
    y2="1156.41"
    stroke="white"
    stroke-opacity="0.02"
    stroke-width="1.5"
  />
<line
    x1="354.741"
    y1="-11"
    x2="354.741"
    y2="1156.41"
    stroke="white"
    stroke-opacity="0.02"
    stroke-width="1.5"
  />
<line
    x1="274.053"
    y1="-11"
    x2="274.053"
    y2="1156.41"
    stroke="white"
    stroke-opacity="0.02"
    stroke-width="1.5"
  />
<line
    x1="112.688"
    y1="-11"
    x2="112.688"
    y2="1156.41"
    stroke="white"
    stroke-opacity="0.02"
    stroke-width="1.5"
  />
<line
    x1="435.423"
    y1="-11"
    x2="435.423"
    y2="1156.41"
    stroke="white"
    stroke-opacity="0.02"
    stroke-width="1.5"
  />
<line
    x1="-153"
    y1="615.113"
    x2="1358.58"
    y2="615.113"
    stroke="white"
    stroke-opacity="0.02"
    stroke-width="1.5"
  />
<line
    x1="-153"
    y1="292.374"
    x2="1358.58"
    y2="292.374"
    stroke="white"
    stroke-opacity="0.02"
    stroke-width="1.5"
  />
<line
    x1="-153"
    y1="453.745"
    x2="1358.58"
    y2="453.745"
    stroke="white"
    stroke-opacity="0.02"
    stroke-width="1.5"
  />
<line
    x1="-153"
    y1="131.004"
    x2="1358.58"
    y2="131.004"
    stroke="white"
    stroke-opacity="0.02"
    stroke-width="1.5"
  />
<line
    x1="-153"
    y1="534.427"
    x2="1358.58"
    y2="534.427"
    stroke="white"
    stroke-opacity="0.02"
    stroke-width="1.5"
  />
<line
    x1="-153"
    y1="211.689"
    x2="1358.58"
    y2="211.689"
    stroke="white"
    stroke-opacity="0.02"
    stroke-width="1.5"
  />
<line
    x1="-153"
    y1="373.059"
    x2="1358.58"
    y2="373.059"
    stroke="white"
    stroke-opacity="0.02"
    stroke-width="1.5"
  />
<line
    x1="-153"
    y1="50.3212"
    x2="1358.58"
    y2="50.3212"
    stroke="white"
    stroke-opacity="0.02"
    stroke-width="1.5"
  />
</svg>
